<svg width="175" height="175" xmlns="http://www.w3.org/2000/svg" xmlns:xlink="http://www.w3.org/1999/xlink" overflow="hidden"><defs><clipPath id="clip0"><rect x="592" y="312" width="175" height="175"/></clipPath></defs><g clip-path="url(#clip0)" transform="translate(-592 -312)"><path d="M645.776 378.921C643.469 379.928 642.415 382.614 643.422 384.921 644.429 387.228 647.115 388.282 649.422 387.275 651.729 386.268 652.783 383.582 651.776 381.275 651.316 380.222 650.475 379.381 649.422 378.921L649.422 366.702 642.13 366.702 642.13 359.921C644.437 358.914 645.491 356.228 644.484 353.921 643.477 351.614 640.791 350.56 638.484 351.567 636.178 352.574 635.124 355.26 636.13 357.567 636.59 358.62 637.431 359.461 638.484 359.921L638.484 366.7 629.038 366.688C628.688 367.663 628.427 368.638 628.154 369.664 628.096 369.887 628.034 370.111 627.972 370.333L645.776 370.35Z" stroke="#000000" stroke-width="3.01724"/><path d="M739.656 404.994 727.078 383.119 727.078 382.208C728.15 351.955 704.494 326.562 674.241 325.491 674.232 325.49 674.223 325.49 674.214 325.49 673.535 325.466 672.86 325.454 672.188 325.453 642.731 325.427 618.554 348.751 617.521 378.19L617.521 382.201C617.45 399.452 625.398 415.758 639.031 426.33L639.031 472.462 696.635 472.462 696.635 450.587 705.568 450.587C717.438 450.563 727.054 440.947 727.078 429.077L727.078 417.775 735.099 417.775C739.839 417.211 744.031 411.741 739.656 404.994ZM737.52 412.104C737.003 413.161 736.011 413.907 734.851 414.109L723.432 414.109 723.432 429.057C723.418 438.917 715.428 446.907 705.568 446.921L692.99 446.921 692.99 468.796 642.677 468.796 642.677 424.54 641.263 423.446C628.5 413.583 621.068 398.332 621.167 382.202L621.167 378.258C622.1 350.777 644.696 329.01 672.192 329.103 672.82 329.103 673.452 329.114 674.086 329.137 702.318 330.157 724.397 353.837 723.441 382.071L723.441 384.087 723.926 384.931 736.504 406.806 736.554 406.89 736.607 406.972C737.791 408.403 738.14 410.349 737.527 412.102Z" stroke="#000000" stroke-width="3.01724"/><path d="M698.641 351.193C698.109 351.197 697.583 351.296 697.086 351.484L691.349 346.322 691.349 338.25C690.146 337.771 688.921 337.289 687.703 336.877L687.703 347.873 694.448 353.949C693.453 356.261 694.521 358.942 696.833 359.936 699.145 360.931 701.826 359.863 702.821 357.551 703.815 355.239 702.747 352.558 700.435 351.564 699.868 351.32 699.258 351.194 698.641 351.193Z" stroke="#000000" stroke-width="3.01724"/><path d="M678.589 387.651C677.994 387.652 677.406 387.769 676.857 387.997L664.005 375.102 664.005 353.938 674.943 353.938 674.943 362.506C672.636 363.513 671.582 366.199 672.589 368.505 673.596 370.812 676.282 371.866 678.589 370.859 680.895 369.853 681.949 367.166 680.943 364.86 680.483 363.806 679.642 362.965 678.589 362.506L678.589 350.29 664.005 350.29 664.005 345.336C666.312 344.329 667.366 341.643 666.359 339.336 665.352 337.029 662.666 335.975 660.359 336.982 658.053 337.989 656.999 340.675 658.005 342.982 658.465 344.035 659.306 344.876 660.359 345.336L660.359 376.544 666.375 382.758 656.714 392.42 656.714 401.341 645.72 401.341 638.69 393.085C639.788 390.742 638.779 387.953 636.436 386.855 634.093 385.757 631.304 386.766 630.206 389.109 629.108 391.452 630.117 394.241 632.46 395.339 633.538 395.844 634.768 395.92 635.899 395.552L644.011 404.989 656.714 404.989 656.714 408.088C654.407 409.095 653.353 411.781 654.36 414.088 655.366 416.394 658.053 417.448 660.359 416.441 662.666 415.435 663.72 412.748 662.713 410.442 662.254 409.388 661.413 408.547 660.359 408.088L660.359 393.858 668.927 385.29 674.303 390.704C673.478 393.076 674.733 395.667 677.104 396.492 679.476 397.316 682.067 396.062 682.891 393.69 683.716 391.319 682.462 388.728 680.09 387.903 679.607 387.735 679.1 387.65 678.589 387.651Z" stroke="#000000" stroke-width="3.01724"/></g></svg>