<svg width="96" height="96" xmlns="http://www.w3.org/2000/svg" xmlns:xlink="http://www.w3.org/1999/xlink" overflow="hidden"><defs><clipPath id="clip0"><rect x="592" y="312" width="96" height="96"/></clipPath></defs><g clip-path="url(#clip0)" transform="translate(-592 -312)"><path d="M621.5 348.711C620.235 349.263 619.656 350.737 620.209 352.002 620.761 353.268 622.235 353.846 623.5 353.294 624.765 352.741 625.344 351.268 624.791 350.002 624.539 349.424 624.078 348.963 623.5 348.711L623.5 342.008 619.5 342.008 619.5 338.288C620.765 337.736 621.344 336.262 620.791 334.997 620.239 333.731 618.765 333.153 617.5 333.705 616.235 334.258 615.656 335.731 616.209 336.997 616.461 337.575 616.922 338.036 617.5 338.288L617.5 342.007 612.318 342C612.126 342.535 611.983 343.07 611.833 343.633 611.801 343.755 611.767 343.878 611.733 344L621.5 344.009Z"/><path d="M673 363.014 666.1 351.014 666.1 350.514C666.688 333.918 653.711 319.988 637.115 319.401 637.11 319.4 637.105 319.4 637.1 319.4 636.728 319.387 636.358 319.381 635.989 319.38 619.83 319.366 606.567 332.161 606 348.31L606 350.51C605.961 359.974 610.321 368.919 617.8 374.718L617.8 400.025 649.4 400.025 649.4 388.025 654.3 388.025C660.812 388.012 666.087 382.737 666.1 376.225L666.1 370.025 670.5 370.025C673.1 369.716 675.4 366.715 673 363.014ZM671.828 366.914C671.545 367.494 671 367.903 670.364 368.014L664.1 368.014 664.1 376.214C664.092 381.623 659.709 386.006 654.3 386.014L647.4 386.014 647.4 398.014 619.8 398.014 619.8 373.736 619.024 373.136C612.023 367.726 607.946 359.359 608 350.511L608 348.347C608.512 333.272 620.908 321.331 635.991 321.382 636.336 321.382 636.682 321.388 637.03 321.401 652.517 321.961 664.629 334.951 664.105 350.439L664.105 351.545 664.371 352.008 671.271 364.008 671.298 364.054 671.327 364.099C671.977 364.884 672.168 365.951 671.832 366.913Z"/><path d="M650.5 333.5C650.208 333.503 649.92 333.557 649.647 333.66L646.5 330.828 646.5 326.4C645.84 326.137 645.168 325.873 644.5 325.647L644.5 331.679 648.2 335.012C647.654 336.28 648.24 337.751 649.508 338.297 650.777 338.842 652.247 338.256 652.793 336.988 653.339 335.72 652.753 334.249 651.484 333.703 651.174 333.57 650.839 333.5 650.5 333.5Z"/><path d="M639.5 353.5C639.174 353.5 638.851 353.565 638.55 353.69L631.5 346.616 631.5 335.006 637.5 335.006 637.5 339.706C636.235 340.258 635.656 341.732 636.209 342.997 636.761 344.263 638.235 344.841 639.5 344.289 640.765 343.736 641.344 342.263 640.791 340.997 640.539 340.419 640.078 339.958 639.5 339.706L639.5 333.005 631.5 333.005 631.5 330.287C632.765 329.735 633.344 328.261 632.791 326.996 632.239 325.73 630.765 325.152 629.5 325.704 628.235 326.257 627.656 327.73 628.209 328.996 628.461 329.574 628.922 330.035 629.5 330.287L629.5 347.407 632.8 350.816 627.5 356.116 627.5 361.01 621.469 361.01 617.613 356.481C618.215 355.196 617.662 353.666 616.376 353.063 615.091 352.461 613.561 353.015 612.959 354.3 612.356 355.585 612.91 357.115 614.195 357.718 614.787 357.995 615.461 358.036 616.082 357.834L620.532 363.011 627.5 363.011 627.5 364.711C626.235 365.263 625.656 366.737 626.209 368.002 626.761 369.268 628.235 369.846 629.5 369.294 630.765 368.741 631.344 367.268 630.791 366.002 630.539 365.424 630.078 364.963 629.5 364.711L629.5 356.905 634.2 352.205 637.149 355.175C636.697 356.476 637.385 357.897 638.686 358.35 639.987 358.802 641.408 358.114 641.86 356.813 642.313 355.512 641.625 354.091 640.324 353.638 640.059 353.546 639.78 353.5 639.5 353.5Z"/></g></svg>